<svg width="104" height="99" viewBox="0 0 104 99" fill="none" xmlns="http://www.w3.org/2000/svg">
<rect width="104" height="99" rx="12" fill="#026ED1"/>
<path d="M56.7777 79H43.6666V37.6667H56.7777V44.5556C59.5724 40.8192 63.8105 38.5917 68.3319 38.483C76.4627 38.5304 83.0235 45.4835 82.9999 54.0278V79H69.8888V55.75C69.3644 51.9012 66.2236 49.0457 62.5237 49.054C60.9054 49.1077 59.3777 49.8524 58.2934 51.1158C57.2091 52.3796 56.6617 54.0529 56.7777 55.75V79ZM37.1111 79H24V37.6667H37.1111V79ZM30.5555 30.7778C26.935 30.7778 24 27.6935 24 23.8889C24 20.0843 26.935 17 30.5555 17C34.1761 17 37.1111 20.0843 37.1111 23.8889C37.1111 25.7159 36.4204 27.4681 35.191 28.7601C33.9616 30.052 32.2942 30.7778 30.5555 30.7778Z" fill="white"/>
</svg>
