<svg width="59" height="62" viewBox="0 0 59 62" fill="none" xmlns="http://www.w3.org/2000/svg">
<path d="M32.7777 62H19.6666V20.6667H32.7777V27.5556C35.5724 23.8192 39.8105 21.5917 44.3319 21.483C52.4627 21.5304 59.0235 28.4835 58.9999 37.0278V62H45.8888V38.75C45.3644 34.9012 42.2236 32.0457 38.5237 32.054C36.9054 32.1077 35.3777 32.8524 34.2934 34.1158C33.2091 35.3796 32.6617 37.0529 32.7777 38.75V62ZM13.1111 62H0V20.6667H13.1111V62ZM6.55555 13.7778C2.93502 13.7778 0 10.6935 0 6.88889C0 3.08426 2.93502 0 6.55555 0C10.1761 0 13.1111 3.08426 13.1111 6.88889C13.1111 8.71593 12.4204 10.4681 11.191 11.7601C9.96161 13.052 8.29418 13.7778 6.55555 13.7778Z" fill="white"/>
</svg>
